<mxfile host="app.diagrams.net" modified="2023-02-13T15:33:26.094Z" agent="5.0 (Windows NT 10.0; Win64; x64) AppleWebKit/537.36 (KHTML, like Gecko) Chrome/109.0.0.0 Safari/537.36" etag="Z4_KQaz9cws4LVsEogiz" version="20.8.20" type="github">
  <diagram name="ページ1" id="uw2IV64ag2YVH6CRgAxx">
    <mxGraphModel dx="1434" dy="756" grid="1" gridSize="10" guides="1" tooltips="1" connect="1" arrows="1" fold="1" page="1" pageScale="1" pageWidth="1169" pageHeight="827" math="0" shadow="0">
      <root>
        <mxCell id="0" />
        <mxCell id="1" parent="0" />
        <mxCell id="qPcaG2clazkTzMnNs_vK-11" style="edgeStyle=orthogonalEdgeStyle;rounded=0;orthogonalLoop=1;jettySize=auto;html=1;exitX=0.5;exitY=1;exitDx=0;exitDy=0;entryX=0.5;entryY=0;entryDx=0;entryDy=0;" parent="1" source="qPcaG2clazkTzMnNs_vK-4" target="qPcaG2clazkTzMnNs_vK-6" edge="1">
          <mxGeometry relative="1" as="geometry">
            <Array as="points">
              <mxPoint x="585" y="300" />
              <mxPoint x="285" y="300" />
            </Array>
          </mxGeometry>
        </mxCell>
        <mxCell id="qPcaG2clazkTzMnNs_vK-12" style="edgeStyle=orthogonalEdgeStyle;rounded=0;orthogonalLoop=1;jettySize=auto;html=1;exitX=0.5;exitY=1;exitDx=0;exitDy=0;" parent="1" source="qPcaG2clazkTzMnNs_vK-4" target="qPcaG2clazkTzMnNs_vK-7" edge="1">
          <mxGeometry relative="1" as="geometry" />
        </mxCell>
        <mxCell id="qPcaG2clazkTzMnNs_vK-13" style="edgeStyle=orthogonalEdgeStyle;rounded=0;orthogonalLoop=1;jettySize=auto;html=1;exitX=0.5;exitY=1;exitDx=0;exitDy=0;" parent="1" source="qPcaG2clazkTzMnNs_vK-4" target="qPcaG2clazkTzMnNs_vK-9" edge="1">
          <mxGeometry relative="1" as="geometry" />
        </mxCell>
        <mxCell id="qPcaG2clazkTzMnNs_vK-14" style="edgeStyle=orthogonalEdgeStyle;rounded=0;orthogonalLoop=1;jettySize=auto;html=1;exitX=0.5;exitY=1;exitDx=0;exitDy=0;" parent="1" source="qPcaG2clazkTzMnNs_vK-4" target="qPcaG2clazkTzMnNs_vK-10" edge="1">
          <mxGeometry relative="1" as="geometry">
            <Array as="points">
              <mxPoint x="585" y="300" />
              <mxPoint x="885" y="300" />
            </Array>
          </mxGeometry>
        </mxCell>
        <mxCell id="qPcaG2clazkTzMnNs_vK-4" value="&amp;lt; namespace &amp;gt;&lt;br&gt;DesinSetting&lt;br&gt;PortText&lt;br&gt;Library&lt;br&gt;DRC" style="rounded=0;whiteSpace=wrap;html=1;" parent="1" vertex="1">
          <mxGeometry x="525" y="180" width="120" height="100" as="geometry" />
        </mxCell>
        <mxCell id="qPcaG2clazkTzMnNs_vK-6" value="&amp;lt; class &amp;gt;&lt;br&gt;LM_DesignSetting" style="rounded=0;whiteSpace=wrap;html=1;" parent="1" vertex="1">
          <mxGeometry x="225" y="350" width="120" height="60" as="geometry" />
        </mxCell>
        <mxCell id="qPcaG2clazkTzMnNs_vK-7" value="&amp;lt; class &amp;gt;&lt;br&gt;LM_PortText" style="rounded=0;whiteSpace=wrap;html=1;" parent="1" vertex="1">
          <mxGeometry x="425" y="350" width="120" height="60" as="geometry" />
        </mxCell>
        <mxCell id="qPcaG2clazkTzMnNs_vK-9" value="&amp;lt; class &amp;gt;&lt;br&gt;LM_Library" style="rounded=0;whiteSpace=wrap;html=1;" parent="1" vertex="1">
          <mxGeometry x="625" y="350" width="120" height="60" as="geometry" />
        </mxCell>
        <mxCell id="qPcaG2clazkTzMnNs_vK-10" value="&amp;lt; class &amp;gt;&lt;br&gt;LM_DRC" style="rounded=0;whiteSpace=wrap;html=1;" parent="1" vertex="1">
          <mxGeometry x="825" y="350" width="120" height="60" as="geometry" />
        </mxCell>
        <mxCell id="qPcaG2clazkTzMnNs_vK-15" value="- struct PortData&amp;nbsp;" style="rounded=0;whiteSpace=wrap;html=1;" parent="1" vertex="1">
          <mxGeometry x="425" y="410" width="120" height="50" as="geometry" />
        </mxCell>
        <mxCell id="qPcaG2clazkTzMnNs_vK-16" value="- class DesignData" style="rounded=0;whiteSpace=wrap;html=1;" parent="1" vertex="1">
          <mxGeometry x="225" y="410" width="120" height="50" as="geometry" />
        </mxCell>
        <mxCell id="qPcaG2clazkTzMnNs_vK-17" value="ResistLirary()&lt;br&gt;UpdateLibrary()&lt;br&gt;DeleteLibrary()&lt;br&gt;CreateBackup()" style="rounded=0;whiteSpace=wrap;html=1;" parent="1" vertex="1">
          <mxGeometry x="625" y="410" width="120" height="90" as="geometry" />
        </mxCell>
        <mxCell id="qPcaG2clazkTzMnNs_vK-19" value="DRC_CheckBom&lt;br&gt;DRC_Check..&lt;br&gt;.&lt;br&gt;.&lt;br&gt;." style="rounded=0;whiteSpace=wrap;html=1;" parent="1" vertex="1">
          <mxGeometry x="825" y="410" width="120" height="110" as="geometry" />
        </mxCell>
        <mxCell id="qPcaG2clazkTzMnNs_vK-20" value="namespace&amp;nbsp;&lt;br&gt;LayoutManager" style="rounded=0;whiteSpace=wrap;html=1;" parent="1" vertex="1">
          <mxGeometry x="525" y="120" width="120" height="60" as="geometry" />
        </mxCell>
        <mxCell id="qPcaG2clazkTzMnNs_vK-23" value="&amp;nbsp;+ CreateDiniFile()&lt;br&gt;+ ReadDiniFile()" style="rounded=0;whiteSpace=wrap;html=1;" parent="1" vertex="1">
          <mxGeometry x="225" y="460" width="120" height="60" as="geometry" />
        </mxCell>
        <mxCell id="qPcaG2clazkTzMnNs_vK-24" value="+ ReadPortText()&lt;br&gt;&amp;nbsp;+ ReadPiniFile()&lt;br&gt;+ ImportFromCAD()&lt;br&gt;+ ExportToCAD()&lt;br&gt;" style="rounded=0;whiteSpace=wrap;html=1;" parent="1" vertex="1">
          <mxGeometry x="425" y="460" width="120" height="90" as="geometry" />
        </mxCell>
        <mxCell id="qPcaG2clazkTzMnNs_vK-30" value="" style="edgeStyle=orthogonalEdgeStyle;rounded=0;orthogonalLoop=1;jettySize=auto;html=1;" parent="1" source="qPcaG2clazkTzMnNs_vK-28" target="qPcaG2clazkTzMnNs_vK-25" edge="1">
          <mxGeometry relative="1" as="geometry" />
        </mxCell>
        <mxCell id="qPcaG2clazkTzMnNs_vK-31" style="edgeStyle=orthogonalEdgeStyle;rounded=0;orthogonalLoop=1;jettySize=auto;html=1;exitX=0.581;exitY=-0.045;exitDx=0;exitDy=0;entryX=0.5;entryY=1;entryDx=0;entryDy=0;exitPerimeter=0;" parent="1" source="qPcaG2clazkTzMnNs_vK-27" target="qPcaG2clazkTzMnNs_vK-25" edge="1">
          <mxGeometry relative="1" as="geometry" />
        </mxCell>
        <mxCell id="qPcaG2clazkTzMnNs_vK-32" style="edgeStyle=orthogonalEdgeStyle;rounded=0;orthogonalLoop=1;jettySize=auto;html=1;exitX=0.5;exitY=0;exitDx=0;exitDy=0;entryX=0.5;entryY=1;entryDx=0;entryDy=0;" parent="1" source="qPcaG2clazkTzMnNs_vK-26" target="qPcaG2clazkTzMnNs_vK-25" edge="1">
          <mxGeometry relative="1" as="geometry" />
        </mxCell>
        <mxCell id="qPcaG2clazkTzMnNs_vK-33" style="edgeStyle=orthogonalEdgeStyle;rounded=0;orthogonalLoop=1;jettySize=auto;html=1;exitX=0.5;exitY=0;exitDx=0;exitDy=0;entryX=0.5;entryY=1;entryDx=0;entryDy=0;" parent="1" source="qPcaG2clazkTzMnNs_vK-29" target="qPcaG2clazkTzMnNs_vK-25" edge="1">
          <mxGeometry relative="1" as="geometry" />
        </mxCell>
        <mxCell id="qPcaG2clazkTzMnNs_vK-34" value="" style="edgeStyle=orthogonalEdgeStyle;rounded=0;orthogonalLoop=1;jettySize=auto;html=1;" parent="1" source="qPcaG2clazkTzMnNs_vK-25" target="qPcaG2clazkTzMnNs_vK-23" edge="1">
          <mxGeometry relative="1" as="geometry" />
        </mxCell>
        <mxCell id="qPcaG2clazkTzMnNs_vK-25" value="&amp;lt; class &amp;gt;&lt;br&gt;DesignData" style="rounded=0;whiteSpace=wrap;html=1;" parent="1" vertex="1">
          <mxGeometry x="225" y="560" width="120" height="60" as="geometry" />
        </mxCell>
        <mxCell id="qPcaG2clazkTzMnNs_vK-26" value="&amp;lt; struct &amp;gt;&lt;br&gt;Chip" style="rounded=0;whiteSpace=wrap;html=1;" parent="1" vertex="1">
          <mxGeometry x="15" y="700" width="120" height="70" as="geometry" />
        </mxCell>
        <mxCell id="qPcaG2clazkTzMnNs_vK-27" value="&amp;lt; struct &amp;gt;&lt;br style=&quot;border-color: var(--border-color);&quot;&gt;Wire" style="rounded=0;whiteSpace=wrap;html=1;" parent="1" vertex="1">
          <mxGeometry x="155" y="700" width="120" height="70" as="geometry" />
        </mxCell>
        <mxCell id="qPcaG2clazkTzMnNs_vK-28" value="&amp;lt; struct &amp;gt;&lt;br style=&quot;border-color: var(--border-color);&quot;&gt;Layer" style="rounded=0;whiteSpace=wrap;html=1;" parent="1" vertex="1">
          <mxGeometry x="295" y="700" width="120" height="70" as="geometry" />
        </mxCell>
        <mxCell id="qPcaG2clazkTzMnNs_vK-29" value="&amp;lt; struct &amp;gt;&lt;br style=&quot;border-color: var(--border-color);&quot;&gt;Pad" style="rounded=0;whiteSpace=wrap;html=1;" parent="1" vertex="1">
          <mxGeometry x="435" y="700" width="120" height="70" as="geometry" />
        </mxCell>
        <mxCell id="qPcaG2clazkTzMnNs_vK-35" value="&amp;lt; c++ &amp;gt;&lt;br&gt;.dll" style="rounded=0;whiteSpace=wrap;html=1;" parent="1" vertex="1">
          <mxGeometry x="625" y="580" width="120" height="60" as="geometry" />
        </mxCell>
        <mxCell id="qPcaG2clazkTzMnNs_vK-36" value="" style="endArrow=classic;html=1;rounded=0;exitX=0.5;exitY=0;exitDx=0;exitDy=0;entryX=0.5;entryY=1;entryDx=0;entryDy=0;" parent="1" source="qPcaG2clazkTzMnNs_vK-35" target="qPcaG2clazkTzMnNs_vK-17" edge="1">
          <mxGeometry width="50" height="50" relative="1" as="geometry">
            <mxPoint x="640" y="550" as="sourcePoint" />
            <mxPoint x="680" y="510" as="targetPoint" />
          </mxGeometry>
        </mxCell>
      </root>
    </mxGraphModel>
  </diagram>
</mxfile>
